HIERARCHY
ROOT Hips
{
  OFFSET 0 0 0
  CHANNELS 6 Xposition Yposition Zposition Zrotation Yrotation Xrotation
  JOINT LeftThigh
  {
    OFFSET 8.409438 0 -5.917753
    CHANNELS 3 Zrotation Yrotation Xrotation
    JOINT LeftLeg
    {
      OFFSET 0 0 -42.358652
      CHANNELS 3 Zrotation Yrotation Xrotation
      JOINT LeftFoot
      {
        OFFSET 0 0 -39.357303
        CHANNELS 3 Zrotation Yrotation Xrotation
      }
    }
  }
  JOINT RightThigh
  {
    OFFSET -8.409438 0 -5.917753
    CHANNELS 3 Zrotation Yrotation Xrotation
    JOINT RightLeg
    {
      OFFSET 0 0 -42.358652
      CHANNELS 3 Zrotation Yrotation Xrotation
      JOINT RightFoot
      {
        OFFSET 0 0 -39.357303
        CHANNELS 3 Zrotation Yrotation Xrotation
      }
    }
  }
  JOINT SpineLow
  {
    OFFSET 0 0 4.719101
    CHANNELS 3 Zrotation Yrotation Xrotation
    JOINT SpineMid
    {
      OFFSET 0 0 12.899191
      CHANNELS 3 Zrotation Yrotation Xrotation
      JOINT Chest
      {
        OFFSET 0 0 12.899191
        CHANNELS 3 Zrotation Yrotation Xrotation
        JOINT LeftShoulder
        {
          OFFSET 7.550562 1.41573 9.438202
          CHANNELS 3 Zrotation Yrotation Xrotation
          JOINT LeftArm
          {
            OFFSET 9.155056 0 4.247191
            CHANNELS 3 Zrotation Yrotation Xrotation
            JOINT LeftForearm
            {
              OFFSET 0 0 25.771955
              CHANNELS 3 Zrotation Yrotation Xrotation
              JOINT LeftHand
              {
                OFFSET 0 0 25.197169
                CHANNELS 3 Zrotation Yrotation Xrotation
              }
            }
          }
        }
        JOINT RightShoulder
        {
          OFFSET -7.550562 1.41573 9.438202
          CHANNELS 3 Zrotation Yrotation Xrotation
          JOINT RightArm
          {
            OFFSET -9.155056 0 4.247191
            CHANNELS 3 Zrotation Yrotation Xrotation
            JOINT RightForearm
            {
              OFFSET 0 0 -25.771955
              CHANNELS 3 Zrotation Yrotation Xrotation
              JOINT RightHand
              {
                OFFSET 0 0 -25.197169
                CHANNELS 3 Zrotation Yrotation Xrotation
              }
            }
          }
        }
        JOINT Neck
        {
          OFFSET 0 0 15.101124
          CHANNELS 3 Zrotation Yrotation Xrotation
          JOINT Head
          {
            OFFSET 0 0 11.325843
            CHANNELS 3 Zrotation Yrotation Xrotation
            End Site
            {
              OFFSET 0 0 14.157303
            }
          }
        }
      }
    }
  }
}
MOTION
Frames: 9
Frame Time: 0.0
0.0  101.685394  0.0  1.446115  10.792155  -101.569214  8.832659  -21.333735  7.766659  -11.159196  14.66179  22.265089  3.255515  4.937156  3.500629  -19.928092  15.159264  -2.850921  -0.721797  4.019686  24.858171  6.424418  4.640442  -0.644411  0.452527  -0.722972  2.748971  1.15331  -2.024565  7.50236  1.15331  -2.024565  7.50236  6.016729  21.118716  14.397535  136.06652  21.255089  171.619678  -28.801854  22.555383  90.866247  29.458149  -40.183886  6.78894  22.992232  -9.834647  22.084977  69.458983  52.575589  34.50765  5.434645  3.248103  -16.693704  65.028595  -25.006981  26.816549  -3.464456  1.417744  2.467508  -2.603985  1.049381  1.858645  
0.0  101.685394  0.0  1.42914  10.658772  -101.499119  9.283373  -21.603227  7.767902  -11.650386  14.861223  21.929905  3.420058  4.983898  3.565764  -19.567626  14.997238  -2.737827  -0.816264  4.076257  24.685324  6.338262  4.6644  -0.631673  0.465361  -0.740776  2.75772  1.18606  -2.074758  7.525645  1.18606  -2.074757  7.525645  5.884419  21.22873  14.08608  136.116187  21.49341  171.610686  -28.481275  22.00911  91.043115  29.88148  -39.564171  6.572989  22.757452  -9.762807  21.919564  69.959113  52.457083  34.974665  5.635634  3.357971  -16.785624  64.94454  -24.995792  26.56062  -3.439319  1.302481  2.33631  -2.584402  0.963766  1.759554  
0.0  101.685394  0.0  1.410023  10.467078  -101.506154  9.619104  -21.801532  7.733519  -11.770282  14.967378  21.908863  3.40198  5.02799  3.540343  -19.463807  14.869409  -2.674933  -0.605939  4.11438  24.570888  6.312403  4.676041  -0.619465  0.473052  -0.759452  2.76468  1.20472  -2.126723  7.544179  1.20472  -2.126723  7.544179  5.841209  21.380188  13.873326  136.088878  21.742744  171.614663  -28.293491  21.515715  91.142921  30.313455  -39.057489  6.238544  22.850412  -9.77205  22.043194  70.139994  52.469461  35.248948  5.754927  3.490797  -16.820083  64.940423  -25.018154  26.278719  -3.388713  1.267861  2.236678  -2.546112  0.938544  1.684532  
0.0  101.685394  0.0  1.372635  10.439186  -101.461702  9.934732  -22.044809  7.679351  -11.874026  15.123561  21.904879  3.256417  5.022003  3.445007  -19.580709  14.779251  -2.684335  -0.388184  4.134497  24.475455  6.327295  4.692164  -0.614299  0.479824  -0.777487  2.764876  1.221159  -2.176719  7.544247  1.221159  -2.176719  7.544246  5.524953  21.506613  13.596033  136.185121  21.937586  171.604813  -28.187355  21.207325  91.219408  30.681086  -38.544391  5.994647  22.718249  -9.766364  22.09565  70.700113  52.361852  35.758364  5.7815  3.674792  -16.89291  64.887013  -25.126192  25.952423  -3.361934  1.172854  2.13394  -2.525494  0.867946  1.60691  
0.0  101.685394  0.0  1.35136  10.408345  -101.464001  10.123831  -22.206111  7.596567  -11.827307  15.214978  21.972399  3.118954  5.02544  3.406374  -19.749212  14.704454  -2.667376  -0.080922  4.145719  24.398566  6.302631  4.702208  -0.619824  0.476924  -0.796695  2.759561  1.211246  -2.228719  7.529554  1.211246  -2.228719  7.529555  5.373434  21.691522  13.504474  136.115218  22.16686  171.603711  -28.097031  20.954216  91.273147  31.004452  -38.133423  5.729512  22.689134  -9.755849  22.29394  71.080865  52.286482  36.147074  5.804616  3.928042  -16.963732  64.905399  -25.271735  25.579946  -3.323964  1.189562  2.059021  -2.496925  0.881016  1.550735  
0.0  101.685394  0.0  1.298113  10.58412  -101.391846  10.082142  -22.32342  7.430375  -11.604004  15.284869  22.138704  2.891542  4.996654  3.32774  -20.163085  14.670883  -2.769221  0.305074  4.100498  24.386488  6.206238  4.674712  -0.644409  0.454521  -0.811728  2.747164  1.148808  -2.267  7.496237  1.148808  -2.267  7.496237  5.09195  21.799726  13.356131  136.124164  22.279063  171.603016  -28.350345  20.791632  91.20998  31.237693  -37.536441  5.644447  22.755584  -9.816996  22.496426  71.595105  52.168916  36.660822  5.601176  4.219529  -16.984388  64.9946  -25.448732  25.132562  -3.336043  1.162443  1.937778  -2.505662  0.861296  1.459681  
0.0  101.685394  0.0  1.272412  10.712774  -101.393993  10.058072  -22.435118  7.360691  -11.464456  15.353377  22.223008  2.715884  4.992784  3.286902  -20.469483  14.644859  -2.792708  0.520421  4.096341  24.366233  6.218363  4.694451  -0.645459  0.4309  -0.826125  2.752769  1.082494  -2.303708  7.512217  1.082494  -2.303708  7.512217  4.843723  21.980389  13.270887  136.103813  22.51001  171.619235  -28.361333  20.626233  91.236965  31.587666  -37.091667  5.326671  22.6677  -9.772595  22.599659  71.978064  52.052188  37.024413  5.611623  4.609025  -17.138284  65.160296  -25.602817  24.644603  -3.284482  1.190618  1.809367  -2.466824  0.883279  1.363422  
0.0  101.685394  0.0  1.216241  10.98969  -101.323754  9.904363  -22.536799  7.228568  -11.313835  15.406944  22.285024  2.562344  4.996597  3.260777  -21.007141  14.636263  -2.95604  0.775542  4.066214  24.406797  6.174755  4.680918  -0.663169  0.402117  -0.833251  2.756379  1.002972  -2.319943  7.523031  1.002972  -2.319943  7.523031  4.401432  22.045265  13.07972  136.561729  22.587821  171.669159  -28.313184  20.306933  91.321416  31.856806  -36.692635  5.088145  22.572006  -9.793318  22.639968  72.613898  51.83269  37.516741  5.29866  5.00337  -17.25599  65.370639  -25.722021  24.140816  -3.385281  1.158515  1.603977  -2.541936  0.86004  1.209404  
0.0  101.685394  0.0  1.176521  11.191821  -101.297966  9.816992  -22.651706  7.147507  -11.290422  15.527701  22.292815  2.495632  4.984524  3.238991  -21.417265  14.58887  -3.038998  0.946659  4.111445  24.418313  6.25538  4.684244  -0.646148  0.365395  -0.841827  2.763804  0.90147  -2.339271  7.544559  0.90147  -2.339271  7.544559  4.163661  22.183014  13.021487  136.619022  22.872157  171.709608  -28.305145  20.038174  91.351957  32.070786  -36.470458  4.791399  22.449997  -9.721974  22.700033  72.731484  51.771879  37.634057  5.342923  5.514333  -17.592063  65.661918  -25.788796  23.62413  -3.340256  1.151718  1.463748  -2.507883  0.855825  1.104109  
